HIERARCHY
ROOT hip
{
  OFFSET 0 0 0
  CHANNELS 6 Xposition Yposition Zposition Zrotation Yrotation Xrotation
  JOINT abdomen
  {
    OFFSET 0 20.6881 -0.73152
    CHANNELS 3 Zrotation Xrotation Yrotation
    JOINT chest
    {
      OFFSET 0 11.7043 -0.48768
      CHANNELS 3 Zrotation Xrotation Yrotation
      JOINT neck
      {
        OFFSET 0 22.1894 -2.19456
        CHANNELS 3 Zrotation Xrotation Yrotation
        JOINT head
        {
          OFFSET -0.24384 7.07133 1.2192
          CHANNELS 3 Zrotation Xrotation Yrotation
          JOINT leftEye
          {
            OFFSET 4.14528 8.04674 8.04672
            CHANNELS 3 Zrotation Xrotation Yrotation
            End Site
            {
              OFFSET 1 0 0
            }
          }
          JOINT rightEye
          {
            OFFSET -3.6576 8.04674 8.04672
            CHANNELS 3 Zrotation Xrotation Yrotation
            End Site
            {
              OFFSET 1 0 0
            }
          }
        }
      }
      JOINT rCollar
      {
        OFFSET -2.68224 19.2634 -4.8768
        CHANNELS 3 Zrotation Xrotation Yrotation
        JOINT rShldr
        {
          OFFSET -8.77824 -1.95073 1.46304
          CHANNELS 3 Zrotation Xrotation Yrotation
          JOINT rForeArm
          {
            OFFSET -28.1742 -1.7115 0.48768
            CHANNELS 3 Zrotation Xrotation Yrotation
            JOINT rHand
            {
              OFFSET -22.5879 0.773209 7.07136
              CHANNELS 3 Zrotation Xrotation Yrotation
              JOINT rThumb1
              {
                OFFSET -1.2192 -0.487915 3.41376
                CHANNELS 3 Zrotation Xrotation Yrotation
                JOINT rThumb2
                {
                  OFFSET -3.37035 -0.52449 3.41376
                  CHANNELS 3 Zrotation Xrotation Yrotation
                  End Site
                  {
                    OFFSET -1.78271 -1.18214 1.43049
                  }
                }
              }
              JOINT rIndex1
              {
                OFFSET -7.75947 0.938293 5.60832
                CHANNELS 3 Zrotation Xrotation Yrotation
                JOINT rIndex2
                {
                  OFFSET -2.54057 -0.884171 1.56538
                  CHANNELS 3 Zrotation Xrotation Yrotation
                  End Site
                  {
                    OFFSET -1.62519 -0.234802 1.16502
                  }
                }
              }
              JOINT rMid1
              {
                OFFSET -8.24714 1.18213 3.41376
                CHANNELS 3 Zrotation Xrotation Yrotation
                JOINT rMid2
                {
                  OFFSET -3.10165 -0.590103 1.0647
                  CHANNELS 3 Zrotation Xrotation Yrotation
                  End Site
                  {
                    OFFSET -2.48547 -0.328903 0.83742
                  }
                }
              }
              JOINT rRing1
              {
                OFFSET -8.82822 0.546677 1.51678
                CHANNELS 3 Zrotation Xrotation Yrotation
                JOINT rRing2
                {
                  OFFSET -2.60934 -0.819778 -0.0198488
                  CHANNELS 3 Zrotation Xrotation Yrotation
                  End Site
                  {
                    OFFSET -2.33842 -0.294052 0.168128
                  }
                }
              }
              JOINT rPinky1
              {
                OFFSET -8.27202 -0.0477905 -0.4584
                CHANNELS 3 Zrotation Xrotation Yrotation
                JOINT rPinky2
                {
                  OFFSET -1.82734 -0.647385 -0.700984
                  CHANNELS 3 Zrotation Xrotation Yrotation
                  End Site
                  {
                    OFFSET -1.69225 -0.51767 -0.607171
                  }
                }
              }
            }
          }
        }
      }
      JOINT lCollar
      {
        OFFSET 2.68224 19.2634 -4.8768
        CHANNELS 3 Zrotation Xrotation Yrotation
        JOINT lShldr
        {
          OFFSET 8.77824 -1.95073 1.46304
          CHANNELS 3 Zrotation Xrotation Yrotation
          JOINT lForeArm
          {
            OFFSET 28.1742 -1.7115 0.48768
            CHANNELS 3 Zrotation Xrotation Yrotation
            JOINT lHand
            {
              OFFSET 22.5879 0.773209 7.07136
              CHANNELS 3 Zrotation Xrotation Yrotation
              JOINT lThumb1
              {
                OFFSET 1.2192 -0.487915 3.41376
                CHANNELS 3 Zrotation Xrotation Yrotation
                JOINT lThumb2
                {
                  OFFSET 3.37035 -0.52449 3.41376
                  CHANNELS 3 Zrotation Xrotation Yrotation
                  End Site
                  {
                    OFFSET 1.78271 -1.18214 1.43049
                  }
                }
              }
              JOINT lIndex1
              {
                OFFSET 7.75947 0.938293 5.60832
                CHANNELS 3 Zrotation Xrotation Yrotation
                JOINT lIndex2
                {
                  OFFSET 2.54057 -0.884171 1.56538
                  CHANNELS 3 Zrotation Xrotation Yrotation
                  End Site
                  {
                    OFFSET 1.62519 -0.234802 1.16502
                  }
                }
              }
              JOINT lMid1
              {
                OFFSET 8.24714 1.18213 3.41376
                CHANNELS 3 Zrotation Xrotation Yrotation
                JOINT lMid2
                {
                  OFFSET 3.10165 -0.590103 1.0647
                  CHANNELS 3 Zrotation Xrotation Yrotation
                  End Site
                  {
                    OFFSET 2.48547 -0.328903 0.83742
                  }
                }
              }
              JOINT lRing1
              {
                OFFSET 8.82822 0.546677 1.51678
                CHANNELS 3 Zrotation Xrotation Yrotation
                JOINT lRing2
                {
                  OFFSET 2.60934 -0.819778 -0.0198488
                  CHANNELS 3 Zrotation Xrotation Yrotation
                  End Site
                  {
                    OFFSET 2.33842 -0.294052 0.168128
                  }
                }
              }
              JOINT lPinky1
              {
                OFFSET 8.27202 -0.0477905 -0.4584
                CHANNELS 3 Zrotation Xrotation Yrotation
                JOINT lPinky2
                {
                  OFFSET 1.82734 -0.647385 -0.700984
                  CHANNELS 3 Zrotation Xrotation Yrotation
                  End Site
                  {
                    OFFSET 1.69225 -0.51767 -0.607171
                  }
                }
              }
            }
          }
        }
      }
    }
  }
  JOINT rButtock
  {
    OFFSET -8.77824 4.35084 1.2192
    CHANNELS 3 Zrotation Xrotation Yrotation
    JOINT rThigh
    {
      OFFSET 0 -1.70687 -2.19456
      CHANNELS 3 Zrotation Xrotation Yrotation
      JOINT rShin
      {
        OFFSET 0 -36.8199 0.73152
        CHANNELS 3 Zrotation Xrotation Yrotation
        JOINT rFoot
        {
          OFFSET 0.73152 -45.1104 -5.12064
          CHANNELS 3 Zrotation Xrotation Yrotation
          End Site
          {
            OFFSET -1.1221 -3.69964 12.103
          }
        }
      }
    }
  }
  JOINT lButtock
  {
    OFFSET 8.77824 4.35084 1.2192
    CHANNELS 3 Zrotation Xrotation Yrotation
    JOINT lThigh
    {
      OFFSET 0 -1.70687 -2.19456
      CHANNELS 3 Zrotation Xrotation Yrotation
      JOINT lShin
      {
        OFFSET 0 -36.8199 0.73152
        CHANNELS 3 Zrotation Xrotation Yrotation
        JOINT lFoot
        {
          OFFSET -0.73152 -45.1104 -5.12064
          CHANNELS 3 Zrotation Xrotation Yrotation
          End Site
          {
            OFFSET 1.1221 -3.69964 12.103
          }
        }
      }
    }
  }
}
MOTION
Frames:	9
Frame Time:	0.00833333
0.0 75.742 0.0 0.0 0.0 0.0 -0.555337 -0.00305886 -0.0158854 -0.153307 -0.00476084 -0.026563 -1.26984e-14 -1.59028e-15 1.67725e-16 -3.81884e-14 3.18055e-15 5.20257e-16 -0.0 0.0 0.0 -0.0 0.0 0.0 -6.36254e-15 1.78596e-17 1.98785e-16 -1.31278e-13 7.0817e-16 2.18663e-15 -2.2982e-12 7.02903e-13 3.81667e-14 -2.63411e-11 -6.17028e-13 3.14875e-13 -6.21256e-11 1.78368e-13 7.95139e-13 -1.0729e-10 3.02153e-13 1.36525e-12 -6.2121e-11 1.80099e-13 7.82416e-13 7.73091 5.47488 0.417314 -6.21251e-11 1.78111e-13 7.95139e-13 2.90554 0.965183 0.102902 -6.21238e-11 1.78608e-13 7.89573e-13 10.2786 0.731801 0.0259123 -6.21284e-11 1.79701e-13 8.015e-13 2.22167 -0.733487 -0.20892 -6.36009e-15 1.74713e-17 -4.96962e-17 -1.35177e-13 4.72114e-16 3.97569e-16 -2.30605e-12 -6.75669e-13 7.31528e-14 -2.63392e-11 7.48126e-13 3.02153e-13 -6.21352e-11 1.53473e-13 7.91958e-13 -1.073e-10 2.60805e-13 1.37241e-12 -6.21409e-11 1.5545e-13 7.98319e-13 -7.73091 5.47488 -0.417314 -6.21348e-11 1.53859e-13 7.95139e-13 -2.90554 0.965183 -0.102902 -6.21381e-11 1.53362e-13 7.93548e-13 -10.2786 0.731801 -0.0259123 -6.21319e-11 1.53462e-13 7.82416e-13 -2.22167 -0.733487 0.20892 -2.03217e-16 0.0 -3.88251e-19 0.0644224 -2.35905 -0.0223814 -0.00798374 -1.27853 -0.0684587 -0.484711 3.63779 0.128969 2.03217e-16 0.0 3.88251e-19 -0.910357 -4.50048 0.0764525 0.0020215 2.60027 0.00927394 0.492898 1.9005 -0.0947763
0.0 72.1552 0.0 -0.103 4.5219 24.0181 -0.290253 -1.33703 -2.3307 0.414557 -0.65697 -0.639976 -2.18367 0.997157 -0.657986 2.95184 -6.69046 -0.212671 -0.0 0.0 0.0 -0.0 0.0 0.0 4.34583e-15 -7.67429e-14 -4.51315e-14 21.5618 8.288 -3.34555 -6.39349 -3.52573 9.2206 0.000738085 0.604422 0.084929 -2.05683e-10 -3.52395e-10 9.59382e-11 -3.54758e-10 -6.08961e-10 1.67631e-10 -2.0568e-10 -3.52393e-10 9.59254e-11 7.73091 5.47488 0.417314 -2.05683e-10 -3.52394e-10 9.59373e-11 2.90554 0.965183 0.102902 -2.0568e-10 -3.52393e-10 9.59326e-11 10.2786 0.731801 0.0259123 -2.05685e-10 -3.52392e-10 9.59408e-11 2.22167 -0.733487 -0.20892 4.32022e-15 -7.67431e-14 -4.53788e-14 -21.0165 14.2347 -3.6078 8.53257 -5.42145 -11.2346 -0.0210756 -3.22502 0.450668 2.20781e-10 1.19837e-09 5.16347e-10 3.75204e-10 2.06811e-09 8.95118e-10 2.20776e-10 1.19837e-09 5.16352e-10 -7.73091 5.47488 -0.417314 2.20783e-10 1.19837e-09 5.16352e-10 -2.90554 0.965183 -0.102902 2.20778e-10 1.19837e-09 5.16349e-10 -10.2786 0.731801 -0.0259123 2.20785e-10 1.19837e-09 5.16339e-10 -2.22167 -0.733487 0.20892 -2.03217e-16 0.0 -3.88251e-19 0.446224 -22.6948 -1.2637 0.0607846 20.0726 0.22228 -0.680385 -0.347077 -1.86255 2.03217e-16 0.0 3.88251e-19 -2.39588 -9.60343 -0.426774 -0.18821 13.714 -0.353481 1.66733 -8.16531 5.72448
0.0 72.011 0.0 0.0584 4.5032 24.1068 -0.133128 -2.74208 -4.78056 1.00321 -1.34009 -1.28796 -4.4687 2.05687 -1.35569 6.02124 -13.7653 -0.449604 -0.0 0.0 0.0 -0.0 0.0 0.0 1.54591e-14 -1.62797e-13 -9.50967e-14 45.4428 16.9554 -7.11759 -11.918 -6.93345 19.0568 -0.000437028 1.24873 0.175495 -3.61278e-10 -7.53337e-10 2.0519e-10 -6.22941e-10 -1.30183e-09 3.5849e-10 -3.61277e-10 -7.53334e-10 2.05177e-10 7.73091 5.47488 0.417314 -3.6128e-10 -7.53333e-10 2.05188e-10 2.90554 0.965183 0.102902 -3.61274e-10 -7.53332e-10 2.05184e-10 10.2786 0.731801 0.0259123 -3.6128e-10 -7.5333e-10 2.05189e-10 2.22167 -0.733487 -0.20892 1.54033e-14 -1.62797e-13 -9.53421e-14 -41.048 29.0831 -8.25029 15.2298 -10.406 -23.3733 0.0121139 -6.61542 0.929306 5.36844e-10 2.54887e-09 1.09762e-09 9.14136e-10 4.39874e-09 1.90278e-09 5.3684e-10 2.54888e-09 1.09762e-09 -7.73091 5.47488 -0.417314 5.36846e-10 2.54889e-09 1.09763e-09 -2.90554 0.965183 -0.102902 5.36839e-10 2.54888e-09 1.09762e-09 -10.2786 0.731801 -0.0259123 5.36848e-10 2.54889e-09 1.09761e-09 -2.22167 -0.733487 0.20892 -2.03217e-16 0.0 -3.88251e-19 -0.483019 -44.1806 -3.32237 -0.172882 42.6145 0.681653 -1.19137 -4.55414 -3.99457 2.03217e-16 0.0 3.88251e-19 -4.09324 -15.0101 -1.00091 -0.22146 25.4406 -0.793826 5.24839 -18.492 12.4678
0.0 71.9188 0.0 0.0143 4.584 24.1514 -0.0832286 -3.97871 -6.97533 1.50838 -1.96047 -1.86777 -6.48225 2.98989 -1.97635 8.69832 -20.0702 -0.67464 -0.0 0.0 0.0 -0.0 0.0 0.0 2.57626e-14 -2.30264e-13 -1.35792e-13 67.8155 24.5078 -10.9267 -15.8846 -9.48315 28.0249 -0.00316359 1.81325 0.2549 -4.92797e-10 -1.05754e-09 2.86224e-10 -8.49696e-10 -1.82749e-09 5.00163e-10 -4.92797e-10 -1.05754e-09 2.86212e-10 7.73091 5.47488 0.417314 -4.928e-10 -1.05754e-09 2.86222e-10 2.90554 0.965183 0.102902 -4.92791e-10 -1.05754e-09 2.86219e-10 10.2786 0.731801 0.0259123 -4.92798e-10 -1.05753e-09 2.86219e-10 2.22167 -0.733487 -0.20892 2.56809e-14 -2.30264e-13 -1.36037e-13 -56.1488 41.9051 -14.1607 19.4787 -13.7576 -34.6809 0.0908272 -9.67264 1.36933 7.86614e-10 3.59479e-09 1.54746e-09 1.34021e-09 6.20382e-09 2.68261e-09 7.86611e-10 3.5948e-09 1.54746e-09 -7.73091 5.47488 -0.417314 7.86618e-10 3.59481e-09 1.54746e-09 -2.90554 0.965183 -0.102902 7.86609e-10 3.5948e-09 1.54746e-09 -10.2786 0.731801 -0.0259123 7.86619e-10 3.59481e-09 1.54745e-09 -2.22167 -0.733487 0.20892 -2.03217e-16 0.0 -3.88251e-19 -4.18153 -63.1745 -7.66944 -1.05898 62.7655 1.66793 -1.90719 -8.27383 -5.90666 2.03217e-16 0.0 3.88251e-19 -5.65092 -19.8038 -1.50377 -0.0606678 35.9354 -1.29529 10.6602 -27.0422 19.3772
0.0 71.8586 0.0 -0.1582 4.833 24.3111 -0.0729501 -4.81931 -8.51804 1.83369 -2.42484 -2.27629 -7.86656 3.60774 -2.40206 10.5111 -24.4518 -0.834257 -0.0 0.0 0.0 -0.0 0.0 0.0 3.40418e-14 -2.51264e-13 -1.53313e-13 84.1345 29.6082 -13.985 -18.2058 -10.9096 34.4835 -0.00582295 2.17828 0.306287 -5.64122e-10 -1.11991e-09 2.96714e-10 -9.7288e-10 -1.9351e-09 5.18868e-10 -5.64123e-10 -1.1199e-09 2.96701e-10 7.73091 5.47488 0.417314 -5.64126e-10 -1.1199e-09 2.96711e-10 2.90554 0.965183 0.102902 -5.64115e-10 -1.1199e-09 2.96708e-10 10.2786 0.731801 0.0259123 -5.64123e-10 -1.1199e-09 2.96708e-10 2.22167 -0.733487 -0.20892 3.39447e-14 -2.51264e-13 -1.53561e-13 -64.1633 50.3895 -20.2122 21.7098 -15.3277 -43.0124 0.176867 -11.8991 1.69703 8.70654e-10 3.87924e-09 1.6687e-09 1.48416e-09 6.69505e-09 2.89283e-09 8.70652e-10 3.87925e-09 1.66871e-09 -7.73091 5.47488 -0.417314 8.70658e-10 3.87926e-09 1.66871e-09 -2.90554 0.965183 -0.102902 8.70649e-10 3.87925e-09 1.66871e-09 -10.2786 0.731801 -0.0259123 8.70659e-10 3.87927e-09 1.6687e-09 -2.22167 -0.733487 0.20892 -2.03217e-16 0.0 -3.88251e-19 -13.5763 -75.9732 -17.4166 -3.56434 76.9378 4.19181 -2.53259 -10.8214 -7.19567 2.03217e-16 0.0 3.88251e-19 -6.63324 -23.0714 -1.75882 0.206559 43.3566 -1.75611 15.6289 -32.4235 24.6651
0.0 71.7949 0.0 -0.0744 5.1177 24.5184 -0.0203848 -5.10679 -9.14426 1.91616 -2.66708 -2.44584 -8.39392 3.75584 -2.55269 11.2036 -26.1232 -0.86432 -0.0 0.0 0.0 -0.0 0.0 0.0 3.87002e-14 -2.11608e-13 -1.31214e-13 90.7737 31.5159 -15.3285 -19.1095 -11.4637 37.2694 -0.00668091 2.26333 0.318267 -5.47986e-10 -8.19459e-10 2.11861e-10 -9.45545e-10 -1.41546e-09 3.71397e-10 -5.47987e-10 -8.19455e-10 2.11848e-10 7.73091 5.47488 0.417314 -5.4799e-10 -8.19455e-10 2.11857e-10 2.90554 0.965183 0.102902 -5.47978e-10 -8.19454e-10 2.11856e-10 10.2786 0.731801 0.0259123 -5.47987e-10 -8.19452e-10 2.11856e-10 2.22167 -0.733487 -0.20892 3.86017e-14 -2.11608e-13 -1.31474e-13 -66.2968 53.6021 -23.2481 22.6223 -15.986 -46.8867 0.222991 -12.9145 1.84884 7.10768e-10 3.05969e-09 1.33008e-09 1.21231e-09 5.28046e-09 2.30568e-09 7.10766e-10 3.05969e-09 1.33008e-09 -7.73091 5.47488 -0.417314 7.10771e-10 3.0597e-09 1.33008e-09 -2.90554 0.965183 -0.102902 7.10762e-10 3.0597e-09 1.33008e-09 -10.2786 0.731801 -0.0259123 7.10774e-10 3.05971e-09 1.33007e-09 -2.22167 -0.733487 0.20892 -2.03217e-16 0.0 -3.88251e-19 -23.2544 -80.4831 -27.3858 -7.52308 82.7776 8.14554 -2.752 -11.7385 -7.53674 2.03217e-16 0.0 3.88251e-19 -6.72693 -24.1844 -1.65327 0.364269 46.4325 -1.97439 17.4116 -34.4149 26.2229
0.0 71.6927 0.0 -0.1649 5.3125 24.3791 0.0856106 -5.00498 -9.11283 1.82871 -2.75104 -2.44444 -8.31348 3.57008 -2.50646 11.1075 -25.8599 -0.794676 -0.0 0.0 0.0 -0.0 0.0 0.0 4.08095e-14 -1.28416e-13 -8.1157e-14 90.1713 31.2301 -15.2396 -19.1916 -11.6066 37.3977 -0.00597189 2.14842 0.302091 -4.69531e-10 -2.61009e-10 5.87431e-11 -8.10958e-10 -4.49778e-10 1.04945e-10 -4.6953e-10 -2.61007e-10 5.87299e-11 7.73091 5.47488 0.417314 -4.69534e-10 -2.61008e-10 5.87393e-11 2.90554 0.965183 0.102902 -4.69521e-10 -2.61009e-10 5.87382e-11 10.2786 0.731801 0.0259123 -4.69531e-10 -2.61008e-10 5.87407e-11 2.22167 -0.733487 -0.20892 4.07197e-14 -1.28416e-13 -8.14334e-14 -65.7636 53.3679 -22.7712 22.8876 -16.4814 -47.5413 0.227516 -13.0676 1.87152 3.77214e-10 1.45337e-09 6.62957e-10 6.44448e-10 2.50771e-09 1.14898e-09 3.77213e-10 1.45337e-09 6.62961e-10 -7.73091 5.47488 -0.417314 3.77216e-10 1.45337e-09 6.62959e-10 -2.90554 0.965183 -0.102902 3.7721e-10 1.45337e-09 6.62959e-10 -10.2786 0.731801 -0.0259123 3.77222e-10 1.45338e-09 6.62949e-10 -2.22167 -0.733487 0.20892 -2.03217e-16 0.0 -3.88251e-19 -19.6831 -79.6787 -24.1367 -7.42067 82.714 8.04279 -2.62459 -11.501 -7.18441 2.03217e-16 0.0 3.88251e-19 -6.17337 -23.7592 -1.28163 0.355011 46.4087 -1.94572 16.31 -34.2415 24.7045
0.0 71.5646 0.0 -0.3697 5.0767 24.5229 0.217433 -4.7731 -8.80851 1.68005 -2.77861 -2.37227 -7.98557 3.29804 -2.38246 10.6438 -24.8517 -0.703426 -0.0 0.0 0.0 -0.0 0.0 0.0 4.31586e-14 -2.07738e-14 -3.13967e-14 86.6666 30.1073 -14.5909 -18.958 -11.5993 36.4493 -0.00478109 1.95469 0.274823 -3.71251e-10 3.61857e-10 -1.27152e-10 -6.42305e-10 6.27133e-10 -2.18665e-10 -3.71249e-10 3.61858e-10 -1.27165e-10 7.73091 5.47488 0.417314 -3.71255e-10 3.61854e-10 -1.27156e-10 2.90554 0.965183 0.102902 -3.71241e-10 3.61853e-10 -1.27156e-10 10.2786 0.731801 0.0259123 -3.71252e-10 3.61853e-10 -1.27151e-10 2.22167 -0.733487 -0.20892 4.30827e-14 -2.07736e-14 -3.16883e-14 -64.3361 51.7229 -20.7224 22.9161 -16.9504 -46.8307 0.216108 -12.9554 1.85375 -6.7589e-12 -4.06945e-10 -1.35795e-10 -8.51312e-12 -7.01975e-10 -2.35666e-10 -6.7595e-12 -4.06945e-10 -1.3579e-10 -7.73091 5.47488 -0.417314 -6.75841e-12 -4.06949e-10 -1.35798e-10 -2.90554 0.965183 -0.102902 -6.76204e-12 -4.06945e-10 -1.35793e-10 -10.2786 0.731801 -0.0259123 -6.74932e-12 -4.06943e-10 -1.35805e-10 -2.22167 -0.733487 0.20892 -2.03217e-16 0.0 -3.88251e-19 -12.2336 -76.5882 -17.0184 -5.1774 80.2467 5.8014 -2.3795 -10.8388 -6.58021 2.03217e-16 0.0 3.88251e-19 -5.34298 -22.7515 -0.759868 0.280353 45.2213 -1.81604 14.0763 -33.0625 21.9254
0.0 71.4527 0.0 -0.41 5.1445 24.6391 0.347775 -4.67023 -8.61588 1.57798 -2.85163 -2.32962 -7.77217 3.18734 -2.29956 10.2392 -24.2887 -0.666205 -0.0 0.0 0.0 -0.0 0.0 0.0 4.85357e-14 9.22361e-14 -1.01877e-14 84.6139 29.4979 -14.2624 -18.8747 -11.6589 36.0131 -0.00398983 1.80327 0.253518 -2.95646e-10 8.55553e-10 -3.10336e-10 -5.1277e-10 1.48047e-09 -5.3761e-10 -2.95643e-10 8.55554e-10 -3.10349e-10 7.73091 5.47488 0.417314 -2.95648e-10 8.55549e-10 -3.10339e-10 2.90554 0.965183 0.102902 -2.95636e-10 8.55548e-10 -3.1034e-10 10.2786 0.731801 0.0259123 -2.95647e-10 8.55547e-10 -3.10333e-10 2.22167 -0.733487 -0.20892 4.84744e-14 9.22357e-14 -1.04859e-14 -63.6867 50.6857 -19.1362 23.0126 -17.3575 -46.6221 0.217725 -13.1746 1.88524 -3.17906e-10 -1.98848e-09 -8.69322e-10 -5.35667e-10 -3.42739e-09 -1.50667e-09 -3.17906e-10 -1.98848e-09 -8.69316e-10 -7.73091 5.47488 -0.417314 -3.17906e-10 -1.98849e-09 -8.69328e-10 -2.90554 0.965183 -0.102902 -3.17908e-10 -1.98848e-09 -8.69321e-10 -10.2786 0.731801 -0.0259123 -3.17896e-10 -1.98848e-09 -8.69335e-10 -2.22167 -0.733487 0.20892 -2.03217e-16 0.0 -3.88251e-19 -8.53231 -74.3574 -13.6481 -4.35378 78.8598 4.97721 -2.22955 -10.4852 -6.16193 2.03217e-16 0.0 3.88251e-19 -4.58175 -22.1185 -0.193676 0.249322 44.8059 -1.73834 12.3705 -32.1332 19.6676
